<?xml version="1.0" standalone="no"?>
<!DOCTYPE svg PUBLIC "-//W3C//DTD SVG 20010904//EN"
 "http://www.w3.org/TR/2001/REC-SVG-20010904/DTD/svg10.dtd">
<svg version="1.0" xmlns="http://www.w3.org/2000/svg"
 width="256.000000pt" height="256.000000pt" viewBox="0 0 256.000000 256.000000"
 preserveAspectRatio="xMidYMid meet">

<g transform="translate(0.000000,256.000000) scale(0.100000,-0.100000)"
fill="#000000" stroke="none">
<path d="M1380 2320 c-141 -22 -268 -87 -370 -190 -41 -41 -86 -97 -100 -123
-17 -32 -30 -46 -40 -43 -8 3 -42 15 -75 27 -80 29 -187 23 -267 -15 -100 -47
-198 -181 -198 -270 0 -19 -13 -30 -64 -55 -158 -77 -266 -258 -266 -442 0
-217 146 -410 359 -473 44 -13 105 -16 321 -16 194 0 269 3 278 12 19 19 15
66 -7 78 -12 6 -115 10 -264 10 -269 0 -302 5 -397 62 -115 69 -183 194 -184
333 0 70 4 90 31 148 44 94 110 160 202 204 42 20 79 41 83 47 4 6 8 29 8 51
0 57 40 135 91 178 93 80 210 84 316 11 75 -51 88 -46 143 55 25 45 68 107 95
136 222 232 582 236 809 9 112 -113 166 -243 166 -405 0 -65 4 -100 13 -107 6
-5 42 -14 78 -20 153 -24 268 -125 305 -270 39 -157 -40 -319 -195 -395 l-65
-32 -286 -5 c-157 -3 -291 -9 -297 -13 -18 -11 -16 -62 1 -76 11 -9 94 -11
318 -9 l304 3 75 37 c239 118 326 388 203 630 -54 106 -194 211 -303 225 l-38
5 -7 77 c-10 111 -23 155 -74 261 -79 162 -216 278 -395 335 -83 26 -225 38
-307 25z"/>
<path d="M1120 1295 c-148 -148 -154 -156 -144 -182 7 -22 17 -29 43 -31 31
-3 42 4 123 85 l88 88 0 -461 c0 -344 3 -463 12 -472 15 -15 61 -15 76 0 9 9
12 128 12 472 l0 461 88 -88 c73 -73 93 -87 119 -87 32 0 53 21 53 51 0 12
-298 319 -310 319 -3 0 -75 -70 -160 -155z"/>
</g>
</svg>
